<svg width="148" height="138" viewBox="0 0 148 138" fill="none" xmlns="http://www.w3.org/2000/svg">
<path d="M107.146 20H31.8542C28.6555 20 26.0625 22.2386 26.0625 25V105C26.0625 107.761 28.6555 110 31.8542 110H107.146C110.344 110 112.938 107.761 112.938 105V25C112.938 22.2386 110.344 20 107.146 20Z" stroke="#5669FF" stroke-opacity="0.1" stroke-width="4" stroke-linejoin="round"/>
<path d="M52.1249 10V25M86.8749 10V25M46.3333 47.5H92.6666M46.3333 67.5H81.0833M46.3333 87.5H69.4999" stroke="#5669FF" stroke-opacity="0.1" stroke-width="4" stroke-linecap="round" stroke-linejoin="round"/>
<g filter="url(#filter0_d_1617_5697)">
<circle cx="121.6" cy="109.6" r="17.6" fill="#5669FF"/>
</g>
<g filter="url(#filter1_d_1617_5697)">
<circle cx="121.6" cy="109.6" r="17.6" fill="#5669FF"/>
</g>
<path d="M121.807 116.249C124.858 116.249 126.671 113.748 126.671 109.778C126.671 105.808 124.84 103.35 121.807 103.35C118.765 103.35 116.925 105.825 116.925 109.787C116.925 113.766 118.747 116.249 121.807 116.249ZM121.807 114.436C120.122 114.436 119.16 112.717 119.16 109.778C119.16 106.891 120.14 105.163 121.807 105.163C123.465 105.163 124.436 106.882 124.436 109.787C124.436 112.726 123.483 114.436 121.807 114.436Z" fill="white"/>
<defs>
<filter id="filter0_d_1617_5697" x="96" y="86" width="51.2" height="51.2002" filterUnits="userSpaceOnUse" color-interpolation-filters="sRGB">
<feFlood flood-opacity="0" result="BackgroundImageFix"/>
<feColorMatrix in="SourceAlpha" type="matrix" values="0 0 0 0 0 0 0 0 0 0 0 0 0 0 0 0 0 0 127 0" result="hardAlpha"/>
<feOffset dy="2"/>
<feGaussianBlur stdDeviation="4"/>
<feColorMatrix type="matrix" values="0 0 0 0 0.337255 0 0 0 0 0.411765 0 0 0 0 1 0 0 0 0.15 0"/>
<feBlend mode="normal" in2="BackgroundImageFix" result="effect1_dropShadow_1617_5697"/>
<feBlend mode="normal" in="SourceGraphic" in2="effect1_dropShadow_1617_5697" result="shape"/>
</filter>
<filter id="filter1_d_1617_5697" x="96" y="86" width="51.2" height="51.2002" filterUnits="userSpaceOnUse" color-interpolation-filters="sRGB">
<feFlood flood-opacity="0" result="BackgroundImageFix"/>
<feColorMatrix in="SourceAlpha" type="matrix" values="0 0 0 0 0 0 0 0 0 0 0 0 0 0 0 0 0 0 127 0" result="hardAlpha"/>
<feOffset dy="2"/>
<feGaussianBlur stdDeviation="4"/>
<feColorMatrix type="matrix" values="0 0 0 0 0.337255 0 0 0 0 0.411765 0 0 0 0 1 0 0 0 0.15 0"/>
<feBlend mode="normal" in2="BackgroundImageFix" result="effect1_dropShadow_1617_5697"/>
<feBlend mode="normal" in="SourceGraphic" in2="effect1_dropShadow_1617_5697" result="shape"/>
</filter>
</defs>
</svg>
