<svg width="129" height="108" viewBox="0 0 129 108" fill="none" xmlns="http://www.w3.org/2000/svg">
<path d="M98.3385 69.4965H93.0248L91.1415 67.809C95.345 63.2715 98.4171 57.9268 100.138 52.1572C101.859 46.3877 102.186 40.3361 101.096 34.4354C97.9349 17.0611 82.3302 3.2491 63.5641 1.06168C57.686 0.360682 51.7158 0.778779 46.0172 2.29051C40.3186 3.80225 35.0108 6.37598 30.4171 9.85496C25.8234 13.3339 22.0399 17.6453 19.2971 22.5266C16.5542 27.4079 14.9094 32.7568 14.4629 38.2477H28.0498C29.6641 24.9982 40.9641 14.4987 55.3581 13.3737C72.4427 11.9987 88.2492 25.4357 88.2492 41.3726C88.2492 56.9345 74.7296 69.4965 57.9813 69.4965C56.8379 69.4965 55.7617 69.309 54.6183 69.184V81.8085L54.6855 81.871C66.7927 82.6834 78.0254 78.9336 86.4331 72.1839L88.2492 73.9338V78.8711L116.836 105.433C119.593 107.995 124.1 107.995 126.858 105.433C129.615 102.87 129.615 98.6828 126.858 96.1204L98.3385 69.4965Z" fill="#5669FF" fill-opacity="0.1"/>
<path d="M35.2479 51.8098L20.9884 65.0593L6.72886 51.8098C5.38362 50.5598 3.2985 50.5598 1.95326 51.8098C0.608026 53.0597 0.608026 54.9972 1.95326 56.2471L16.2128 69.4966L1.95326 82.7461C0.608026 83.996 0.608026 85.9334 1.95326 87.1834C3.2985 88.4333 5.38362 88.4333 6.72886 87.1834L20.9884 73.9339L35.2479 87.1834C36.5931 88.4333 38.6783 88.4333 40.0235 87.1834C41.3687 85.9334 41.3687 83.996 40.0235 82.7461L25.764 69.4966L40.0235 56.2471C41.3687 54.9972 41.3687 53.0597 40.0235 51.8098C39.3811 51.2376 38.5256 50.9181 37.6357 50.9181C36.7458 50.9181 35.8903 51.2376 35.2479 51.8098Z" fill="#5669FF" fill-opacity="0.1"/>
</svg>
