<svg width="191" height="196" viewBox="0 0 191 196" fill="none" xmlns="http://www.w3.org/2000/svg">
<g filter="url(#filter0_d_1616_5657)">
<circle cx="155.6" cy="23.6" r="17.6" fill="#5669FF"/>
</g>
<path d="M155.098 29.6496C158.149 29.6496 159.962 27.1488 159.962 23.1785C159.962 19.2082 158.131 16.7504 155.098 16.7504C152.056 16.7504 150.217 19.2254 150.217 23.1871C150.217 27.166 152.039 29.6496 155.098 29.6496ZM155.098 27.8363C153.414 27.8363 152.451 26.1176 152.451 23.1785C152.451 20.291 153.431 18.5637 155.098 18.5637C156.756 18.5637 157.728 20.2824 157.728 23.1871C157.728 26.1262 156.774 27.8363 155.098 27.8363Z" fill="white"/>
<path d="M144.8 139.235H136.9L134.1 136.726C140.349 129.98 144.917 122.034 147.475 113.456C150.034 104.878 150.52 95.8811 148.9 87.1083C144.2 61.2775 121 40.7429 93.0996 37.4908C84.3605 36.4486 75.4845 37.0702 67.0123 39.3177C58.54 41.5653 50.6488 45.3917 43.8192 50.564C36.9896 55.7363 31.3646 62.1461 27.2867 69.4032C23.2089 76.6604 20.7635 84.6128 20.0996 92.7762H40.2996C42.6996 73.0779 59.4996 57.4679 80.8996 55.7954C106.3 53.7512 129.8 73.7283 129.8 97.422C129.8 120.558 109.7 139.235 84.7996 139.235C83.0996 139.235 81.4996 138.956 79.7996 138.77V157.539L79.8996 157.632C97.8996 158.84 114.6 153.265 127.1 143.23L129.8 145.832V153.172L172.3 192.662C176.4 196.471 183.1 196.471 187.2 192.662C191.3 188.852 191.3 182.627 187.2 178.817L144.8 139.235Z" fill="#5669FF" fill-opacity="0.1"/>
<path d="M51 112.94L29.8 132.638L8.6 112.94C6.6 111.081 3.5 111.081 1.5 112.94C-0.5 114.798 -0.5 117.678 1.5 119.537L22.7 139.235L1.5 158.933C-0.5 160.792 -0.5 163.672 1.5 165.53C3.5 167.389 6.6 167.389 8.6 165.53L29.8 145.832L51 165.53C53 167.389 56.1 167.389 58.1 165.53C60.1 163.672 60.1 160.792 58.1 158.933L36.9 139.235L58.1 119.537C60.1 117.678 60.1 114.798 58.1 112.94C57.1449 112.089 55.873 111.614 54.55 111.614C53.227 111.614 51.9551 112.089 51 112.94Z" fill="#5669FF" fill-opacity="0.1"/>
<defs>
<filter id="filter0_d_1616_5657" x="130" y="0" width="51.2002" height="51.2002" filterUnits="userSpaceOnUse" color-interpolation-filters="sRGB">
<feFlood flood-opacity="0" result="BackgroundImageFix"/>
<feColorMatrix in="SourceAlpha" type="matrix" values="0 0 0 0 0 0 0 0 0 0 0 0 0 0 0 0 0 0 127 0" result="hardAlpha"/>
<feOffset dy="2"/>
<feGaussianBlur stdDeviation="4"/>
<feColorMatrix type="matrix" values="0 0 0 0 0.337255 0 0 0 0 0.411765 0 0 0 0 1 0 0 0 0.15 0"/>
<feBlend mode="normal" in2="BackgroundImageFix" result="effect1_dropShadow_1616_5657"/>
<feBlend mode="normal" in="SourceGraphic" in2="effect1_dropShadow_1616_5657" result="shape"/>
</filter>
</defs>
</svg>
