<svg width="149" height="128" viewBox="0 0 149 128" fill="none" xmlns="http://www.w3.org/2000/svg">
<g filter="url(#filter0_d_1592_5704)">
<circle cx="122.6" cy="99.6" r="17.6" fill="#5669FF"/>
</g>
<path d="M122.807 106.249C125.858 106.249 127.671 103.748 127.671 99.7781C127.671 95.8078 125.84 93.35 122.807 93.35C119.765 93.35 117.925 95.825 117.925 99.7867C117.925 103.766 119.747 106.249 122.807 106.249ZM122.807 104.436C121.122 104.436 120.16 102.717 120.16 99.7781C120.16 96.8906 121.14 95.1633 122.807 95.1633C124.465 95.1633 125.436 96.882 125.436 99.7867C125.436 102.726 124.483 104.436 122.807 104.436Z" fill="white"/>
<path d="M35.5 91.875V98.4375C35.5 100.297 34.9419 101.854 33.8258 103.11C32.7058 104.37 31.3194 105 29.6667 105H23.8333C22.1806 105 20.7961 104.37 19.68 103.11C18.56 101.854 18 100.297 18 98.4375V45.9375L30.25 6.5625C30.8333 4.59375 31.8794 3.00781 33.3883 1.80469C34.8933 0.601563 36.5694 0 38.4167 0H102.583C104.431 0 106.109 0.601563 107.618 1.80469C109.123 3.00781 110.167 4.59375 110.75 6.5625L123 45.9375V98.4375C123 100.297 122.44 101.854 121.32 103.11C120.204 104.37 118.819 105 117.167 105H111.333C109.681 105 108.296 104.37 107.18 103.11C106.06 101.854 105.5 100.297 105.5 98.4375V91.875H35.5ZM33.3883 40.5L69 40.5L107.18 40.5L100.542 13.125H40.4583L33.3883 40.5ZM44.25 72.1875C46.6806 72.1875 48.7456 71.2294 50.445 69.3131C52.1483 67.4013 53 65.0781 53 62.3438C53 59.6094 52.1483 57.2862 50.445 55.3744C48.7456 53.4581 46.6806 52.5 44.25 52.5C41.8194 52.5 39.7544 53.4581 38.055 55.3744C36.3517 57.2862 35.5 59.6094 35.5 62.3438C35.5 65.0781 36.3517 67.4013 38.055 69.3131C39.7544 71.2294 41.8194 72.1875 44.25 72.1875ZM96.75 72.1875C99.1806 72.1875 101.246 71.2294 102.945 69.3131C104.648 67.4013 105.5 65.0781 105.5 62.3438C105.5 59.6094 104.648 57.2862 102.945 55.3744C101.246 53.4581 99.1806 52.5 96.75 52.5C94.3194 52.5 92.2544 53.4581 90.555 55.3744C88.8517 57.2862 88 59.6094 88 62.3438C88 65.0781 88.8517 67.4013 90.555 69.3131C92.2544 71.2294 94.3194 72.1875 96.75 72.1875Z" fill="#5669FF" fill-opacity="0.1"/>
<defs>
<filter id="filter0_d_1592_5704" x="97" y="76" width="51.2" height="51.2002" filterUnits="userSpaceOnUse" color-interpolation-filters="sRGB">
<feFlood flood-opacity="0" result="BackgroundImageFix"/>
<feColorMatrix in="SourceAlpha" type="matrix" values="0 0 0 0 0 0 0 0 0 0 0 0 0 0 0 0 0 0 127 0" result="hardAlpha"/>
<feOffset dy="2"/>
<feGaussianBlur stdDeviation="4"/>
<feColorMatrix type="matrix" values="0 0 0 0 0.337255 0 0 0 0 0.411765 0 0 0 0 1 0 0 0 0.15 0"/>
<feBlend mode="normal" in2="BackgroundImageFix" result="effect1_dropShadow_1592_5704"/>
<feBlend mode="normal" in="SourceGraphic" in2="effect1_dropShadow_1592_5704" result="shape"/>
</filter>
</defs>
</svg>
