<svg width="149" height="134" viewBox="0 0 149 134" fill="none" xmlns="http://www.w3.org/2000/svg">
<g filter="url(#filter0_d_1592_5717)">
<circle cx="122.6" cy="105.6" r="17.6" fill="#5669FF"/>
</g>
<path d="M122.807 112.249C125.858 112.249 127.671 109.748 127.671 105.778C127.671 101.808 125.84 99.35 122.807 99.35C119.765 99.35 117.925 101.825 117.925 105.787C117.925 109.766 119.747 112.249 122.807 112.249ZM122.807 110.436C121.122 110.436 120.16 108.717 120.16 105.778C120.16 102.891 121.14 101.163 122.807 101.163C124.465 101.163 125.436 102.882 125.436 105.787C125.436 108.726 124.483 110.436 122.807 110.436Z" fill="white"/>
<path d="M75.5 27H59.75C58.3576 27 57.0223 27.5531 56.0377 28.5377C55.0531 29.5222 54.5 30.8576 54.5 32.25V74.25C54.5 75.6424 55.0531 76.9777 56.0377 77.9623C57.0223 78.9469 58.3576 79.5 59.75 79.5C61.1424 79.5 62.4778 78.9469 63.4623 77.9623C64.4469 76.9777 65 75.6424 65 74.25V63.75H75.5C79.6772 63.75 83.6832 62.0906 86.6369 59.1369C89.5906 56.1832 91.25 52.1771 91.25 48V42.75C91.25 38.5728 89.5906 34.5668 86.6369 31.6131C83.6832 28.6594 79.6772 27 75.5 27ZM80.75 48C80.75 49.3924 80.1969 50.7277 79.2123 51.7123C78.2278 52.6969 76.8924 53.25 75.5 53.25H65V37.5H75.5C76.8924 37.5 78.2278 38.0531 79.2123 39.0377C80.1969 40.0222 80.75 41.3576 80.75 42.75V48ZM70.25 0.75C59.8665 0.75 49.7162 3.82907 41.0826 9.59784C32.449 15.3666 25.7199 23.566 21.7463 33.1591C17.7727 42.7522 16.7331 53.3082 18.7588 63.4922C20.7845 73.6762 25.7847 83.0308 33.1269 90.3731C40.4692 97.7153 49.8238 102.715 60.0078 104.741C70.1918 106.767 80.7478 105.727 90.3409 101.754C99.934 97.7801 108.133 91.051 113.902 82.4174C119.671 73.7838 122.75 63.6335 122.75 53.25C122.75 46.3556 121.392 39.5287 118.754 33.1591C116.115 26.7895 112.248 21.002 107.373 16.1269C102.498 11.2518 96.7105 7.38469 90.3409 4.74632C83.9713 2.10795 77.1444 0.75 70.25 0.75ZM70.25 95.25C61.9432 95.25 53.8229 92.7867 46.9161 88.1717C40.0092 83.5567 34.626 76.9972 31.4471 69.3227C28.2682 61.6482 27.4365 53.2034 29.057 45.0562C30.6776 36.909 34.6777 29.4253 40.5515 23.5515C46.4253 17.6777 53.909 13.6776 62.0562 12.057C70.2034 10.4364 78.6482 11.2682 86.3227 14.4471C93.9972 17.6259 100.557 23.0092 105.172 29.916C109.787 36.8229 112.25 44.9432 112.25 53.25C112.25 64.3891 107.825 75.0719 99.9485 82.9485C92.072 90.825 81.3891 95.25 70.25 95.25Z" fill="#5669FF" fill-opacity="0.1"/>
<defs>
<filter id="filter0_d_1592_5717" x="97" y="82" width="51.2" height="51.2002" filterUnits="userSpaceOnUse" color-interpolation-filters="sRGB">
<feFlood flood-opacity="0" result="BackgroundImageFix"/>
<feColorMatrix in="SourceAlpha" type="matrix" values="0 0 0 0 0 0 0 0 0 0 0 0 0 0 0 0 0 0 127 0" result="hardAlpha"/>
<feOffset dy="2"/>
<feGaussianBlur stdDeviation="4"/>
<feColorMatrix type="matrix" values="0 0 0 0 0.337255 0 0 0 0 0.411765 0 0 0 0 1 0 0 0 0.15 0"/>
<feBlend mode="normal" in2="BackgroundImageFix" result="effect1_dropShadow_1592_5717"/>
<feBlend mode="normal" in="SourceGraphic" in2="effect1_dropShadow_1592_5717" result="shape"/>
</filter>
</defs>
</svg>
