<svg width="149" height="129" viewBox="0 0 149 129" fill="none" xmlns="http://www.w3.org/2000/svg">
<path d="M88.55 58.2543C93.4519 54.719 97.0299 49.871 98.7862 44.3849C100.542 38.8987 100.39 33.0472 98.3489 27.6444C96.3083 22.2415 92.4813 17.5561 87.4003 14.2399C82.3194 10.9237 76.2372 9.1416 70 9.1416C63.7627 9.1416 57.6806 10.9237 52.5996 14.2399C47.5187 17.5561 43.6917 22.2415 41.651 27.6444C39.6104 33.0472 39.4575 38.8987 41.2138 44.3849C42.97 49.871 46.548 54.719 51.45 58.2543C43.0504 61.3391 35.7214 66.4555 30.2444 73.0581C24.7675 79.6607 21.3478 87.5019 20.35 95.746C20.2778 96.3478 20.3356 96.9569 20.5201 97.5383C20.7047 98.1197 21.0123 98.6621 21.4255 99.1345C22.2601 100.089 23.4739 100.7 24.8 100.833C26.1261 100.967 27.4558 100.613 28.4966 99.8475C29.5374 99.0825 30.2041 97.9699 30.35 96.7543C31.4479 87.7948 36.1084 79.5201 43.4411 73.5113C50.7737 67.5024 60.2645 64.1807 70.1 64.1807C79.9355 64.1807 89.4262 67.5024 96.7589 73.5113C104.092 79.5201 108.752 87.7948 109.85 96.7543C109.986 97.8805 110.572 98.9206 111.496 99.6739C112.419 100.427 113.614 100.84 114.85 100.833H115.4C116.711 100.695 117.909 100.088 118.733 99.1434C119.557 98.199 119.941 96.9943 119.8 95.7918C118.797 87.5244 115.359 79.663 109.854 73.0502C104.349 66.4375 96.9845 61.3227 88.55 58.2543ZM70 55.0001C66.0444 55.0001 62.1776 53.9249 58.8886 51.9104C55.5996 49.8959 53.0361 47.0326 51.5224 43.6827C50.0086 40.3327 49.6126 36.6465 50.3843 33.0901C51.156 29.5338 53.0608 26.2671 55.8578 23.7032C58.6549 21.1392 62.2186 19.3931 66.0982 18.6857C69.9778 17.9783 73.9991 18.3414 77.6537 19.729C81.3082 21.1166 84.4317 23.4664 86.6294 26.4813C88.827 29.4962 90 33.0408 90 36.6668C90 41.5291 87.8928 46.1923 84.1421 49.6304C80.3914 53.0686 75.3043 55.0001 70 55.0001Z" fill="#5669FF" fill-opacity="0.1"/>
<g filter="url(#filter0_d_1617_5717)">
<circle cx="122.6" cy="100.6" r="17.6" fill="#5669FF"/>
</g>
<g filter="url(#filter1_d_1617_5717)">
<circle cx="122.6" cy="100.6" r="17.6" fill="#5669FF"/>
</g>
<path d="M122.807 107.249C125.858 107.249 127.671 104.748 127.671 100.778C127.671 96.8078 125.84 94.35 122.807 94.35C119.765 94.35 117.925 96.825 117.925 100.787C117.925 104.766 119.747 107.249 122.807 107.249ZM122.807 105.436C121.122 105.436 120.16 103.717 120.16 100.778C120.16 97.8906 121.14 96.1633 122.807 96.1633C124.465 96.1633 125.436 97.882 125.436 100.787C125.436 103.726 124.483 105.436 122.807 105.436Z" fill="white"/>
<defs>
<filter id="filter0_d_1617_5717" x="97" y="77" width="51.2" height="51.2002" filterUnits="userSpaceOnUse" color-interpolation-filters="sRGB">
<feFlood flood-opacity="0" result="BackgroundImageFix"/>
<feColorMatrix in="SourceAlpha" type="matrix" values="0 0 0 0 0 0 0 0 0 0 0 0 0 0 0 0 0 0 127 0" result="hardAlpha"/>
<feOffset dy="2"/>
<feGaussianBlur stdDeviation="4"/>
<feColorMatrix type="matrix" values="0 0 0 0 0.337255 0 0 0 0 0.411765 0 0 0 0 1 0 0 0 0.15 0"/>
<feBlend mode="normal" in2="BackgroundImageFix" result="effect1_dropShadow_1617_5717"/>
<feBlend mode="normal" in="SourceGraphic" in2="effect1_dropShadow_1617_5717" result="shape"/>
</filter>
<filter id="filter1_d_1617_5717" x="97" y="77" width="51.2" height="51.2002" filterUnits="userSpaceOnUse" color-interpolation-filters="sRGB">
<feFlood flood-opacity="0" result="BackgroundImageFix"/>
<feColorMatrix in="SourceAlpha" type="matrix" values="0 0 0 0 0 0 0 0 0 0 0 0 0 0 0 0 0 0 127 0" result="hardAlpha"/>
<feOffset dy="2"/>
<feGaussianBlur stdDeviation="4"/>
<feColorMatrix type="matrix" values="0 0 0 0 0.337255 0 0 0 0 0.411765 0 0 0 0 1 0 0 0 0.15 0"/>
<feBlend mode="normal" in2="BackgroundImageFix" result="effect1_dropShadow_1617_5717"/>
<feBlend mode="normal" in="SourceGraphic" in2="effect1_dropShadow_1617_5717" result="shape"/>
</filter>
</defs>
</svg>
