<svg width="189" height="195" viewBox="0 0 189 195" fill="none" xmlns="http://www.w3.org/2000/svg">
<path d="M148.039 160.02L140.059 151.2H41.6387V63H148.039V160.02Z" fill="white" fill-opacity="0.8"/>
<g filter="url(#filter0_d_1589_5722)">
<circle cx="162.6" cy="23.6" r="17.6" fill="#5669FF"/>
</g>
<path d="M162.098 29.6496C165.149 29.6496 166.962 27.1488 166.962 23.1785C166.962 19.2082 165.131 16.7504 162.098 16.7504C159.056 16.7504 157.217 19.2254 157.217 23.1871C157.217 27.166 159.039 29.6496 162.098 29.6496ZM162.098 27.8363C160.414 27.8363 159.451 26.1176 159.451 23.1785C159.451 20.291 160.431 18.5637 162.098 18.5637C163.756 18.5637 164.728 20.2824 164.728 23.1871C164.728 26.1262 163.774 27.8363 162.098 27.8363Z" fill="white"/>
<path fill-rule="evenodd" clip-rule="evenodd" d="M79 118.512C79 119.309 79.4749 120.027 80.2232 120.302C82.6316 121.187 88.2269 123 93.6504 123C99.0594 123 104.468 121.197 106.803 120.309C107.537 120.03 108 119.32 108 118.535V118.535C108 117.099 106.508 116.1 105.146 116.556C102.398 117.477 98.0164 118.654 93.5773 118.654C89.102 118.654 84.6266 117.457 81.8386 116.534C80.4801 116.084 79 117.081 79 118.512V118.512Z" fill="#5669FF"/>
<path opacity="0.2" fill-rule="evenodd" clip-rule="evenodd" d="M71 101.036C71 100.467 71.2223 99.9182 71.6546 99.5474C72.7193 98.634 74.9231 97 77.0622 97C79.2103 97 81.3583 98.6477 82.3819 99.5587C82.792 99.9238 83 100.453 83 101.002V101.002C83 102.953 80.3502 104.063 78.4779 103.515C78.0058 103.377 77.5197 103.295 77.032 103.295C76.5172 103.295 76.0023 103.387 75.5025 103.539C73.6298 104.109 71 102.994 71 101.036V101.036Z" fill="#5669FF"/>
<path opacity="0.2" fill-rule="evenodd" clip-rule="evenodd" d="M105 101.036C105 100.467 105.222 99.9182 105.655 99.5474C106.719 98.634 108.923 97 111.062 97C113.21 97 115.358 98.6477 116.382 99.5587C116.792 99.9238 117 100.453 117 101.002V101.002C117 102.953 114.35 104.063 112.478 103.515C112.006 103.377 111.52 103.295 111.032 103.295C110.517 103.295 110.002 103.387 109.503 103.539C107.63 104.109 105 102.994 105 101.036V101.036Z" fill="#5669FF"/>
<path opacity="0.1" d="M2.35711 56.8539C-0.155321 42.9136 10.9626 26.4275 23.98 23" stroke="#5669FF" stroke-width="3" stroke-linecap="round" stroke-linejoin="round"/>
<path opacity="0.1" d="M17.2759 59.1525C15.335 48.3835 23.9237 35.6478 33.9798 33" stroke="#5669FF" stroke-width="3" stroke-linecap="round" stroke-linejoin="round"/>
<path d="M147.7 48H41.3C33.985 48 28 54.615 28 62.7V150.9C28 158.985 33.985 165.6 41.3 165.6H134.4L161 195V62.7C161 54.615 155.015 48 147.7 48ZM147.7 159.72L139.72 150.9H41.3V62.7H147.7V159.72Z" fill="#5669FF" fill-opacity="0.05"/>
<defs>
<filter id="filter0_d_1589_5722" x="137" y="0" width="51.2" height="51.2002" filterUnits="userSpaceOnUse" color-interpolation-filters="sRGB">
<feFlood flood-opacity="0" result="BackgroundImageFix"/>
<feColorMatrix in="SourceAlpha" type="matrix" values="0 0 0 0 0 0 0 0 0 0 0 0 0 0 0 0 0 0 127 0" result="hardAlpha"/>
<feOffset dy="2"/>
<feGaussianBlur stdDeviation="4"/>
<feColorMatrix type="matrix" values="0 0 0 0 0.337255 0 0 0 0 0.411765 0 0 0 0 1 0 0 0 0.15 0"/>
<feBlend mode="normal" in2="BackgroundImageFix" result="effect1_dropShadow_1589_5722"/>
<feBlend mode="normal" in="SourceGraphic" in2="effect1_dropShadow_1589_5722" result="shape"/>
</filter>
</defs>
</svg>
